<?xml version="1.0" encoding="UTF-8"?>
<!DOCTYPE svg PUBLIC "-//W3C//DTD SVG 1.1//EN" "http://www.w3.org/Graphics/SVG/1.1/DTD/svg11.dtd">
<!-- Creator: CorelDRAW -->
<svg xmlns="http://www.w3.org/2000/svg" xml:space="preserve" width="500px" height="500px" style="shape-rendering:geometricPrecision; text-rendering:geometricPrecision; image-rendering:optimizeQuality; fill-rule:evenodd; clip-rule:evenodd"
viewBox="0 0 500 500"
 xmlns:xlink="http://www.w3.org/1999/xlink">
 <defs>
  <style type="text/css">
   <![CDATA[
    .fil1 {fill:black}
    .fil0 {fill:white}
    .fil2 {fill:white;fill-rule:nonzero}
   ]]>
  </style>
 </defs>
 <g id="Layer_x0020_1">
  <metadata id="CorelCorpID_0Corel-Layer"/>
  <rect class="fil0" transform="matrix(2.3622 -2.3622 2.24972 2.24972 53.5301 250)" width="83.1723" height="87.331"/>
  <rect class="fil0" transform="matrix(3.00581 -3.00581 2.86268 2.86268 1.11489E-005 250)" width="83.1723" height="87.331"/>
  <path class="fil1" d="M165.988 215.547l53.9716 0 0 -17.3113 -61.0999 0 -47.1823 47.5212 108.282 0 0 -17.311 -66.8702 0 12.8986 -12.8989zm258.655 30.2099l-170.4 -170.4 0 170.4 17.3116 0 0 -56.0074 43.6779 0 0 -16.9721 -43.6779 0 0 -56.0081 55.6685 56.0081 -5.54111 0 0 16.9721 22.8527 0 56.0081 56.0074 24.1007 0zm-178.887 0l0.00032745 -170.4 -170.4 170.4 24.1007 0 56.0081 -56.0074 72.9801 0 0 56.0074 17.311 0zm-17.311 -72.9795l-56.0081 0 56.0081 -56.0081 -56.0081 56.0081 56.0081 -56.0081 -56.0081 56.0081 56.0081 -56.0081 0 55.6806 0 0.32745z"/>
  <path class="fil1" d="M4.07348 249.83l245.757 245.757 246.096 -245.757 -246.096 -245.417 -245.757 245.417zm245.757 -191.106l-191.106 191.106 191.106 191.446 191.446 -191.446 -191.446 -191.106z"/>
  <path class="fil1" d="M249.83 254.243l-174.473 0 174.473 174.813 87.4066 -87.4069 0 -44.7788 0 0 1.36547 -1.48957 -1.36547 -0.661777 0 -3.83837 3.65172 -6.36858 -3.78925 0 0 -7.51203 -1.57274 -7.20063 0 -32.8858 1.29245 -4.36295 2.73912 0 0.298635 -1.86123 -1.65559 0 -0.00032745 0 0 -0.0006549 -3.07214 -3.90943 0 -15.399 0.0566489 0 3.5417 -5.63378 -1.56816 0 -0.00491175 -0.019647 0 -7.49173 -17.9122 0 0 -29.9882 -1.56849 -1.56849 0 31.5567 -17.9115 0 0 7.49173 -0.00491175 0.019647 -1.56849 0 3.48505 5.63378c0.104784,0 0.0563214,14.0578 0.0563214,15.399l-3.07214 3.91008 -1.59894 0 0.298635 1.86123 2.73945 0 1.29212 4.36295 0 32.8858 -1.57274 7.20063 0 7.51203 -3.78893 0 3.6514 6.36858 0 3.83837 -1.36547 0.661777 1.36547 1.48957 0 7.2206 -49.8481 -49.8481zm90.0262 -25.1269l0 -5.23822 -3.15465 0 0 2.26825 2.37401 2.96997 0.780641 0zm-39.7004 -5.23822l-3.09768 0 0 5.23822 0.723665 0 2.37401 -2.96997 0 -2.26825zm23.6635 28.2308l0 16.4 -10.5459 0 0 -16.5091c0,-2.91267 2.36124,-5.27358 5.27358,-5.27358 2.91234,0 5.27358,2.36092 5.27358,5.27358l-0.0013098 0.109041zm-5.27326 -43.7414c4.11408,0 7.44785,3.33344 7.44785,7.44753 0,4.11408 -3.33377,7.44818 -7.44785,7.44818 -4.11343,0 -7.4472,-3.3341 -7.4472,-7.44818 0,-4.11408 3.33377,-7.44753 7.4472,-7.44753z"/>
  <path class="fil2" d="M280.622 465.467l-1.10744 1.10744 0.0861194 0.0864468 0.501654 -0.501981 1.25086 1.25086 0.105766 -0.106094 -1.25053 -1.25053 0.500016 -0.500016 -0.0864468 -0.0861194zm0.237074 -0.237401l-0.0920135 0.0923409 0.160778 0.160451 0.0920135 -0.0920135 -0.160778 -0.160778zm0.456793 0.456793l-0.0920135 0.0920135 0.880186 0.880513 0.0923409 -0.0923409 -0.880513 -0.880186zm1.67425 -0.219392c-0.00098235,0.0117882 -0.00294705,0.0281607 -0.00556665,0.0478077 -0.00229215,0.0199745 -0.0058941,0.0406038 -0.010151,0.062543 -0.00425685,0.0212843 -0.00884115,0.0409313 -0.0144078,0.0582861 -0.00556665,0.0173549 -0.0117882,0.0294705 -0.0186647,0.0370019 -0.0058941,0.0058941 -0.0111333,0.0085137 -0.0157176,0.0091686 -0.00491175,0.00032745 -0.0085137,0 -0.0117882,-0.0013098 -0.00294705,-0.00163725 -0.0091686,-0.0072039 -0.0186647,-0.0160451 -0.00949605,-0.00884115 -0.0199745,-0.0186647 -0.0314352,-0.0301254 -0.0114608,-0.0111333 -0.0216117,-0.0212843 -0.0304529,-0.0301254l-0.450899 -0.450899c-0.0330725,-0.0340548 -0.0628704,-0.0618881 -0.088739,-0.0831723 -0.026196,-0.0216117 -0.052392,-0.0379842 -0.0792429,-0.0487901 -0.026196,-0.0108059 -0.0573038,-0.0170274 -0.0926684,-0.0189921 -0.036347,-0.00163725 -0.0726939,0.00491175 -0.109696,0.0183372 -0.0366744,0.0134255 -0.0717116,0.0314352 -0.104129,0.0540293 -0.032745,0.0225941 -0.0615606,0.0461705 -0.0861194,0.0707292 -0.032745,0.0333999 -0.0602508,0.0671273 -0.0818625,0.102164 -0.0216117,0.0353646 -0.0396215,0.0697469 -0.0533744,0.103474 -0.0137529,0.0340548 -0.0248862,0.06549 -0.0330725,0.0946331 -0.0078588,0.0294705 -0.0147353,0.0543567 -0.0199745,0.0759684l0.0962703 0.0962703c0.00818625,-0.0540293 0.0183372,-0.102819 0.0304529,-0.14637 0.0117882,-0.0438783 0.0288156,-0.0844821 0.0497724,-0.121811 0.0212843,-0.0373293 0.049445,-0.0733488 0.0844821,-0.108386 0.0487901,-0.0484626 0.0949605,-0.0792429 0.138184,-0.0929958 0.042896,-0.0137529 0.0838272,-0.0134255 0.122139,0.0006549 0.0383117,0.0140804 0.0740037,0.0379842 0.108059,0.0726939l0.11166 0.11166c-0.0199745,0.0212843 -0.0442058,0.0504273 -0.0743312,0.0864468 -0.0294705,0.0360195 -0.0599234,0.0772782 -0.0907037,0.123776 -0.0311078,0.0464979 -0.0582861,0.0962703 -0.08219,0.14899 -0.0242313,0.0530469 -0.0402764,0.107404 -0.0487901,0.162415 -0.0085137,0.0556665 -0.0052392,0.110351 0.010151,0.16438 0.0150627,0.0533744 0.0468254,0.104784 0.0939782,0.153247 0.0317627,0.0314352 0.0671273,0.0540293 0.106749,0.0681096 0.039294,0.0144078 0.0798978,0.0206294 0.122139,0.0183372 0.0419136,-0.0019647 0.0831723,-0.0117882 0.122794,-0.0294705 0.0396215,-0.0170274 0.0759684,-0.0422411 0.109041,-0.0746586 0.0333999,-0.0343823 0.0605783,-0.0694194 0.0815351,-0.105766 0.0212843,-0.0370019 0.0373293,-0.0726939 0.0487901,-0.108386 0.0114608,-0.0347097 0.0199745,-0.0667998 0.0252137,-0.0969252 0.00491175,-0.0294705 0.0091686,-0.0550116 0.0108059,-0.0749861 0.0239039,0.0203019 0.045843,0.0376568 0.06549,0.0507548 0.019647,0.013098 0.0383117,0.0199745 0.0556665,0.0203019 0.0176823,0.0006549 0.0353646,-0.00818625 0.0533744,-0.026196 0.0189921,-0.019647 0.0353646,-0.0514097 0.0481352,-0.0962703 0.0127706,-0.0442058 0.0252137,-0.10151 0.036347,-0.172239l-0.078588 -0.0782606zm-0.262615 0.219392c-0.0006549,0.0248862 -0.00294705,0.0520646 -0.00622155,0.08219 -0.0032745,0.029798 -0.00949605,0.0609057 -0.0180098,0.0929958 -0.00884115,0.0324176 -0.0216117,0.0641802 -0.0383117,0.0956154 -0.0167,0.0320901 -0.0389666,0.0615606 -0.0667998,0.0900488 -0.0176823,0.0176823 -0.0389666,0.0333999 -0.0645077,0.0478077 -0.0252137,0.0147353 -0.052392,0.0252137 -0.08219,0.0314352 -0.0294705,0.006549 -0.058941,0.0058941 -0.088739,-0.00098235 -0.029798,-0.0072039 -0.0579587,-0.0235764 -0.0841547,-0.0491175 -0.026196,-0.0265235 -0.0455156,-0.0556665 -0.0573038,-0.0877566 -0.0117882,-0.0320901 -0.0173549,-0.0651626 -0.0176823,-0.0995448 -0.00032745,-0.0343823 0.00294705,-0.0687645 0.0111333,-0.103147 0.0078588,-0.0337274 0.0189921,-0.0664724 0.0324176,-0.0975801 0.0167,-0.0389666 0.0379842,-0.075641 0.0628704,-0.111006 0.0252137,-0.0350372 0.0497724,-0.0671273 0.0753135,-0.0959429 0.0255411,-0.0284882 0.0474803,-0.052392 0.0658175,-0.0713841l0.276368 0.276368zm0.339238 -1.75055l-0.309768 0.309768c-0.0288156,0.0281607 -0.0563214,0.0566489 -0.08219,0.085137 -0.0252137,0.0281607 -0.0491175,0.0599234 -0.0704018,0.0943056 -0.0219392,0.0340548 -0.0409313,0.0746586 -0.0573038,0.120502 -0.0173549,0.0464979 -0.0242313,0.0959429 -0.019647,0.147025 0.00425685,0.0510822 0.0180098,0.100855 0.0412587,0.149645 0.023249,0.0484626 0.0550116,0.0926684 0.0939782,0.132617 0.0419136,0.0412587 0.0838272,0.0710567 0.125741,0.0900488 0.0415862,0.0189921 0.08219,0.0301254 0.121811,0.0330725 0.0389666,0.0026196 0.0762959,0.0006549 0.110678,-0.00622155 0.0350372,-0.00687645 0.0661449,-0.0157176 0.0933233,-0.0268509 0.0275058,-0.0111333 0.0500999,-0.0206294 0.0681096,-0.0294705 -0.0222666,0.0451881 -0.0409313,0.0867743 -0.0553391,0.125413 -0.0144078,0.0383117 -0.0209568,0.0736763 -0.0189921,0.106421 0.00163725,0.0324176 0.0160451,0.0622155 0.042896,0.0897213 0.013098,0.0137529 0.0307803,0.0248862 0.0537018,0.0333999 0.0229215,0.0085137 0.0520646,0.0098235 0.0874292,0.0039294 0.0356921,-0.00622155 0.078588,-0.0235764 0.129343,-0.0530469 -0.0455156,0.0641802 -0.0769508,0.122466 -0.0936507,0.173549 -0.0167,0.0514097 -0.0235764,0.0969252 -0.0203019,0.135237 0.0032745,0.039294 0.0124431,0.0726939 0.0268509,0.0995448 0.0144078,0.0275058 0.029798,0.0484626 0.0461705,0.0641802 0.0032745,0.0039294 0.0117882,0.0114608 0.0258686,0.0222666 0.0140804,0.0114608 0.0333999,0.0222666 0.0579587,0.0330725 0.0248862,0.0111333 0.0543567,0.0183372 0.0893939,0.0216117 0.0347097,0.0032745 0.0749861,-0.00098235 0.119847,-0.0124431 0.0448607,-0.0117882 0.0946331,-0.0347097 0.149645,-0.0687645 0.0546842,-0.0337274 0.11428,-0.0828449 0.17846,-0.146698 0.0854645,-0.0857919 0.146698,-0.168964 0.184354,-0.248207 0.0373293,-0.0798978 0.0517371,-0.153574 0.0432234,-0.222339 -0.00818625,-0.0681096 -0.0383117,-0.12836 -0.0900488,-0.180098 -0.0291431,-0.0284882 -0.0609057,-0.0504273 -0.095288,-0.0645077 -0.0343823,-0.0140804 -0.0684371,-0.0222666 -0.103147,-0.0235764 -0.0347097,-0.0019647 -0.0674547,0.0019647 -0.0979076,0.0114608 -0.0383117,0.0117882 -0.0733488,0.0265235 -0.104457,0.0445332 -0.0311078,0.0180098 -0.0622155,0.0402764 -0.0939782,0.0664724 -0.0314352,0.0268509 -0.0674547,0.058941 -0.107076,0.0969252 -0.0203019,0.019647 -0.0435509,0.0406038 -0.0694194,0.062543 -0.026196,0.0222666 -0.0533744,0.0415862 -0.0808802,0.0576312 -0.0284882,0.0160451 -0.0553391,0.0252137 -0.08219,0.0271784 -0.026196,0.0019647 -0.0504273,-0.0072039 -0.0713841,-0.0278333 -0.0117882,-0.0117882 -0.0199745,-0.0258686 -0.0252137,-0.0415862 -0.00491175,-0.0160451 -0.00622155,-0.0330725 -0.00425685,-0.0504273 0.0013098,-0.0117882 0.0039294,-0.0242313 0.00818625,-0.0370019 0.00425685,-0.0127706 0.0111333,-0.0294705 0.0209568,-0.0491175 0.010151,-0.0199745 0.0239039,-0.0464979 0.0425685,-0.0798978 0.0186647,-0.0330725 0.0432234,-0.0759684 0.0733488,-0.128033 0.036347,-0.0638528 0.058941,-0.122794 0.069092,-0.175841 0.0098235,-0.0537018 0.0111333,-0.102164 0.00360195,-0.144733 -0.00753135,-0.042896 -0.0189921,-0.0802253 -0.0347097,-0.11166 -0.0163725,-0.0311078 -0.0317627,-0.0563214 -0.0474803,-0.0753135 -0.0160451,-0.0193196 -0.0271784,-0.0317627 -0.0337274,-0.0376568 -0.0320901,-0.0314352 -0.0648351,-0.0556665 -0.0985625,-0.0723665 -0.0337274,-0.0167 -0.0671273,-0.0284882 -0.0995448,-0.0347097 -0.0320901,-0.00687645 -0.0622155,-0.010151 -0.0903762,-0.0108059 -0.0278333,-0.00098235 -0.0517371,-0.0006549 -0.0723665,0.00032745l0.200072 -0.200072 -0.0782606 -0.0782606zm-0.32745 0.484299c0.0320901,-0.0320901 0.0684371,-0.0563214 0.108713,-0.0723665 0.0402764,-0.0167 0.0818625,-0.0248862 0.124431,-0.0252137 0.0435509,-0.00032745 0.085137,0.0072039 0.125413,0.023249 0.0402764,0.0157176 0.0769508,0.0399489 0.110023,0.0723665 0.0432234,0.0438783 0.0717116,0.0939782 0.0861194,0.150955 0.0144078,0.055994 0.0144078,0.112315 0,0.168309 -0.0140804,0.0566489 -0.0432234,0.106749 -0.0861194,0.150955 -0.0442058,0.042896 -0.0943056,0.072039 -0.1503,0.0857919 -0.055994,0.0140804 -0.111988,0.0140804 -0.167982,-0.0006549 -0.0563214,-0.0150627 -0.106094,-0.0435509 -0.1503,-0.0871017 -0.0432234,-0.0442058 -0.072039,-0.0939782 -0.0861194,-0.149972 -0.0137529,-0.0556665 -0.0137529,-0.111988 0.0006549,-0.167654 0.0144078,-0.0556665 0.0425685,-0.105439 0.0854645,-0.148662zm1.3193 0.687973c0.0212843,0.0206294 0.0360195,0.0464979 0.0448607,0.0779331 0.00884115,0.0311078 0.0098235,0.0667998 0.0026196,0.107404 -0.0078588,0.0402764 -0.0255411,0.0841547 -0.0540293,0.13229 -0.0284882,0.0481352 -0.069092,0.0985625 -0.122794,0.152919 -0.0091686,0.0091686 -0.0229215,0.0229215 -0.0415862,0.0402764 -0.0186647,0.0170274 -0.0406038,0.0360195 -0.0664724,0.055994 -0.0258686,0.0199745 -0.0537018,0.0386391 -0.0838272,0.0556665 -0.0304529,0.0167 -0.0609057,0.0291431 -0.0926684,0.0373293 -0.0317627,0.00818625 -0.0628704,0.00884115 -0.0936507,0.0026196 -0.0304529,-0.0058941 -0.0592685,-0.0222666 -0.0864468,-0.0487901 -0.0183372,-0.0189921 -0.0314352,-0.0386391 -0.039294,-0.058941 -0.0078588,-0.0209568 -0.0117882,-0.0412587 -0.0124431,-0.0605783 -0.00032745,-0.0199745 0.0013098,-0.0379842 0.00491175,-0.0546842 0.00360195,-0.0167 0.0072039,-0.0307803 0.0114608,-0.0415862 0.0091686,-0.0275058 0.0209568,-0.0540293 0.0356921,-0.0798978 0.0140804,-0.0258686 0.0337274,-0.0540293 0.0582861,-0.0844821 0.0245588,-0.029798 0.0576312,-0.06549 0.098235,-0.106094 0.0150627,-0.0157176 0.0350372,-0.0343823 0.0592685,-0.0566489 0.0242313,-0.0222666 0.0517371,-0.0438783 0.08219,-0.0651626 0.0307803,-0.0209568 0.0628704,-0.0373293 0.0962703,-0.049445 0.0337274,-0.0114608 0.0677822,-0.0147353 0.101837,-0.00949605 0.0340548,0.0052392 0.0664724,0.0229215 0.0975801,0.0533744zm-0.490193 -1.70962c-0.0697469,0.0707292 -0.120174,0.145715 -0.151609,0.225613 -0.0307803,0.0792429 -0.0445332,0.159796 -0.0412587,0.240676 0.0039294,0.0812076 0.0225941,0.159468 0.0576312,0.235109 0.0347097,0.0749861 0.0834998,0.144078 0.14506,0.206294 0.0576312,0.0569763 0.11821,0.10151 0.18239,0.132617 0.0638528,0.0317627 0.12836,0.0514097 0.194505,0.0599234 0.0651626,0.0085137 0.129998,0.006549 0.193196,-0.0058941 0.0638528,-0.0121157 0.124104,-0.0337274 0.18108,-0.0638528 0.0566489,-0.0304529 0.108386,-0.0687645 0.154556,-0.114935 0.0579587,-0.0576312 0.102819,-0.123776 0.135564,-0.197452 0.032745,-0.0740037 0.0504273,-0.151609 0.0527195,-0.233145 0.00294705,-0.0812076 -0.0114608,-0.162415 -0.0435509,-0.243295 -0.0320901,-0.0812076 -0.0834998,-0.157504 -0.154556,-0.22987 -0.0631979,-0.062543 -0.132945,-0.111988 -0.208586,-0.146043 -0.0759684,-0.0343823 -0.154229,-0.0533744 -0.235437,-0.0566489 -0.0808802,-0.0032745 -0.161105,0.0108059 -0.239694,0.0415862 -0.0789155,0.0311078 -0.152592,0.0808802 -0.222011,0.149317zm0.0884115 0.0884115c0.0419136,-0.0422411 0.0913586,-0.0759684 0.148007,-0.100855 0.0566489,-0.0248862 0.117227,-0.0389666 0.181407,-0.0412587 0.0648351,-0.0026196 0.130325,0.0091686 0.195815,0.0350372 0.0661449,0.0258686 0.129343,0.0684371 0.190249,0.128688 0.0553391,0.0556665 0.0965978,0.11559 0.124431,0.178788 0.0275058,0.0631979 0.0425685,0.127378 0.0435509,0.191558 0.0013098,0.0648351 -0.010151,0.127051 -0.0343823,0.186647 -0.0239039,0.0599234 -0.0602508,0.113625 -0.108059,0.162415 -0.0481352,0.0474803 -0.102164,0.0834998 -0.161105,0.107404 -0.0595959,0.0242313 -0.121484,0.0360195 -0.185992,0.0350372 -0.0648351,-0.00098235 -0.129015,-0.0153902 -0.192541,-0.042896 -0.0635253,-0.0278333 -0.123449,-0.069092 -0.17977,-0.125086 -0.0491175,-0.0497724 -0.0867743,-0.100855 -0.11297,-0.153902 -0.0258686,-0.0527195 -0.0415862,-0.105766 -0.0478077,-0.158486 -0.00622155,-0.0527195 -0.0039294,-0.103802 0.00622155,-0.153247 0.010151,-0.049445 0.026196,-0.0949605 0.0497724,-0.137529 0.0229215,-0.0425685 0.0507548,-0.0798978 0.0831723,-0.112315zm1.35073 -2.40545l-0.0943056 0.0939782 0.50984 0.50984c-0.0311078,0.00949605 -0.0645077,0.0212843 -0.1002,0.0356921 -0.0360195,0.0144078 -0.0736763,0.0340548 -0.112643,0.0586136 -0.0389666,0.0242313 -0.0782606,0.0563214 -0.118537,0.0959429 -0.0615606,0.0622155 -0.108713,0.13098 -0.140804,0.206621 -0.0317627,0.075641 -0.0478077,0.153574 -0.0481352,0.234454 -0.00032745,0.0812076 0.0160451,0.161105 0.049445,0.239366 0.0330725,0.0789155 0.0834998,0.152592 0.151282,0.221356 0.0573038,0.0563214 0.117555,0.100527 0.181407,0.13229 0.0638528,0.0311078 0.128688,0.0514097 0.194833,0.0599234 0.06549,0.00884115 0.130325,0.00753135 0.19385,-0.0045843 0.0638528,-0.0114608 0.123449,-0.0320901 0.180098,-0.0615606 0.0573038,-0.029798 0.108059,-0.0671273 0.153574,-0.112643 0.0438783,-0.0442058 0.0776057,-0.0877566 0.101182,-0.129998 0.023249,-0.0419136 0.0402764,-0.0812076 0.0507548,-0.118537 0.0104784,-0.0366744 0.0180098,-0.0694194 0.0225941,-0.098235l0.0684371 0.0684371 0.0943056 -0.0939782 -1.33698 -1.33698zm1.08779 1.27607c-0.0032745,0.0288156 -0.00949605,0.0605783 -0.0176823,0.095288 -0.0091686,0.0347097 -0.0239039,0.0707292 -0.0448607,0.108713 -0.0209568,0.0386391 -0.0510822,0.0776057 -0.0903762,0.117555 -0.0478077,0.0481352 -0.102492,0.085137 -0.16307,0.111006 -0.0612332,0.0258686 -0.125086,0.0399489 -0.191558,0.0412587 -0.0674547,0.0013098 -0.1336,-0.0114608 -0.199745,-0.0376568 -0.0658175,-0.0265235 -0.12836,-0.0687645 -0.186647,-0.126396 -0.0491175,-0.0491175 -0.0877566,-0.103474 -0.115917,-0.16307 -0.0278333,-0.058941 -0.0438783,-0.120174 -0.0474803,-0.183045 -0.00294705,-0.0635253 0.00622155,-0.126068 0.0301254,-0.187629 0.0235764,-0.0615606 0.0622155,-0.119519 0.115917,-0.173876 0.0425685,-0.0422411 0.085137,-0.0743312 0.127706,-0.0969252 0.0419136,-0.0225941 0.0818625,-0.0396215 0.118864,-0.0497724 0.0370019,-0.0108059 0.0687645,-0.0186647 0.0962703,-0.0239039l0.568453 0.568453zm-0.00949605 -1.47615c-0.0700743,0.0707292 -0.120502,0.145715 -0.151609,0.225613 -0.0311078,0.0792429 -0.0448607,0.159796 -0.0415862,0.240676 0.0039294,0.0812076 0.0229215,0.159468 0.0576312,0.235109 0.0347097,0.0749861 0.0834998,0.144078 0.14506,0.206294 0.0576312,0.0569763 0.118537,0.101182 0.18239,0.132617 0.0638528,0.0317627 0.12836,0.0514097 0.194505,0.0599234 0.0651626,0.0085137 0.129998,0.006549 0.193523,-0.0058941 0.0635253,-0.0121157 0.123776,-0.0337274 0.180752,-0.0641802 0.0566489,-0.0301254 0.108713,-0.0684371 0.154556,-0.114608 0.0579587,-0.0576312 0.103147,-0.123776 0.135564,-0.19778 0.032745,-0.0736763 0.0504273,-0.151609 0.0527195,-0.232817 0.00294705,-0.0812076 -0.0114608,-0.162415 -0.0435509,-0.243295 -0.0317627,-0.0812076 -0.0834998,-0.157504 -0.154556,-0.22987 -0.0631979,-0.062543 -0.132945,-0.111988 -0.208586,-0.146043 -0.0759684,-0.0347097 -0.154229,-0.0537018 -0.235437,-0.0566489 -0.0808802,-0.00360195 -0.160778,0.0104784 -0.239694,0.0415862 -0.078588,0.0311078 -0.152592,0.0808802 -0.221684,0.149317zm0.0880841 0.0884115c0.0422411,-0.0422411 0.0913586,-0.0759684 0.148007,-0.101182 0.0569763,-0.0248862 0.117227,-0.0386391 0.181735,-0.0409313 0.0645077,-0.0026196 0.129998,0.00884115 0.195488,0.0347097 0.0661449,0.026196 0.12967,0.0687645 0.190249,0.128688 0.0553391,0.055994 0.0969252,0.115917 0.124431,0.178788 0.0275058,0.0635253 0.0425685,0.127378 0.0435509,0.191886 0.0013098,0.0648351 -0.010151,0.127051 -0.0343823,0.186647 -0.0239039,0.0595959 -0.0599234,0.113625 -0.108059,0.162415 -0.0481352,0.0471528 -0.101837,0.0834998 -0.161105,0.107404 -0.0595959,0.0242313 -0.121484,0.0360195 -0.185992,0.0350372 -0.0648351,-0.00098235 -0.129015,-0.0153902 -0.192213,-0.042896 -0.0638528,-0.0278333 -0.123776,-0.0694194 -0.180098,-0.125086 -0.0491175,-0.0497724 -0.0867743,-0.100855 -0.112643,-0.153902 -0.0258686,-0.0527195 -0.0419136,-0.105766 -0.0481352,-0.158486 -0.00622155,-0.0527195 -0.0039294,-0.103802 0.00622155,-0.153247 0.010151,-0.049445 0.0265235,-0.0949605 0.0500999,-0.137529 0.0225941,-0.0425685 0.0504273,-0.0802253 0.0828449,-0.112315zm1.63889 -2.6936l-0.103802 0.103802 0.660467 1.60156 -1.60549 -0.656538 -0.105766 0.105766 1.90936 0.784243 0.0333999 -0.0333999 -0.788173 -1.90543zm1.88186 0.485936c-0.00098235,0.0121157 -0.00294705,0.0284882 -0.00556665,0.0481352 -0.00229215,0.0199745 -0.0058941,0.0406038 -0.010151,0.062543 -0.0039294,0.0209568 -0.0085137,0.0406038 -0.0144078,0.0582861 -0.00556665,0.0173549 -0.0117882,0.0294705 -0.0186647,0.0370019 -0.0058941,0.0058941 -0.0111333,0.0085137 -0.0157176,0.0091686 -0.00491175,0.00032745 -0.0085137,0 -0.0117882,-0.0013098 -0.00294705,-0.00163725 -0.0091686,-0.0072039 -0.0186647,-0.0160451 -0.00949605,-0.00884115 -0.0199745,-0.0186647 -0.0314352,-0.0301254 -0.0114608,-0.0114608 -0.0216117,-0.0216117 -0.0304529,-0.0304529l-0.450899 -0.450899c-0.0330725,-0.0337274 -0.0628704,-0.0615606 -0.088739,-0.0828449 -0.026196,-0.0216117 -0.052392,-0.0379842 -0.0789155,-0.0491175 -0.0265235,-0.0108059 -0.0576312,-0.0167 -0.0929958,-0.0189921 -0.036347,-0.00163725 -0.0726939,0.00491175 -0.109696,0.0183372 -0.0366744,0.0137529 -0.0717116,0.0317627 -0.103802,0.0543567 -0.0330725,0.0225941 -0.0618881,0.0461705 -0.0864468,0.0707292 -0.032745,0.0330725 -0.0599234,0.0671273 -0.0818625,0.102164 -0.0216117,0.0353646 -0.0396215,0.0694194 -0.0533744,0.103474 -0.0137529,0.0340548 -0.0248862,0.06549 -0.0330725,0.0943056 -0.0078588,0.0294705 -0.0147353,0.0546842 -0.0199745,0.0762959l0.0962703 0.0959429c0.00818625,-0.0537018 0.0183372,-0.102492 0.0307803,-0.14637 0.0117882,-0.0435509 0.0284882,-0.0841547 0.049445,-0.121484 0.0212843,-0.0376568 0.049445,-0.0733488 0.0844821,-0.108386 0.0487901,-0.0484626 0.0949605,-0.0795704 0.138184,-0.0933233 0.042896,-0.0134255 0.0838272,-0.013098 0.122139,0.00098235 0.0383117,0.0137529 0.0743312,0.0379842 0.108059,0.0726939l0.11166 0.11166c-0.019647,0.0212843 -0.0442058,0.0504273 -0.0743312,0.0864468 -0.0294705,0.0356921 -0.0599234,0.0772782 -0.0903762,0.123776 -0.0314352,0.0464979 -0.0586136,0.0962703 -0.0825174,0.14899 -0.0242313,0.0527195 -0.0402764,0.107404 -0.0487901,0.162415 -0.00818625,0.0553391 -0.00491175,0.110351 0.010151,0.16438 0.0150627,0.0533744 0.0468254,0.104784 0.0939782,0.153247 0.0320901,0.0311078 0.0671273,0.0540293 0.106749,0.0681096 0.039294,0.0144078 0.0802253,0.0206294 0.122139,0.0183372 0.0419136,-0.0019647 0.0831723,-0.0117882 0.122794,-0.0294705 0.0396215,-0.0173549 0.0759684,-0.0422411 0.109041,-0.0746586 0.0333999,-0.0343823 0.0605783,-0.0694194 0.0815351,-0.106094 0.0212843,-0.0366744 0.0373293,-0.0723665 0.0487901,-0.108059 0.0114608,-0.0350372 0.0199745,-0.0667998 0.0252137,-0.0969252 0.0052392,-0.0294705 0.0091686,-0.0550116 0.0111333,-0.0753135 0.0235764,0.0206294 0.0455156,0.0379842 0.0651626,0.0510822 0.019647,0.013098 0.0383117,0.0199745 0.0556665,0.0203019 0.0176823,0.0006549 0.0356921,-0.00818625 0.0533744,-0.026196 0.0189921,-0.019647 0.0353646,-0.0517371 0.0481352,-0.0962703 0.0127706,-0.0442058 0.0252137,-0.101837 0.036347,-0.172239l-0.078588 -0.078588zm-0.262615 0.219719c-0.0006549,0.0248862 -0.00294705,0.0520646 -0.00622155,0.0818625 -0.0032745,0.0301254 -0.00949605,0.0612332 -0.0180098,0.0933233 -0.00884115,0.0320901 -0.0216117,0.0638528 -0.0379842,0.0956154 -0.0170274,0.0320901 -0.039294,0.0615606 -0.0671273,0.0897213 -0.0176823,0.0176823 -0.0389666,0.0337274 -0.0645077,0.0481352 -0.0248862,0.0147353 -0.052392,0.0252137 -0.08219,0.0314352 -0.0294705,0.006549 -0.058941,0.0058941 -0.0884115,-0.00098235 -0.0301254,-0.0072039 -0.0582861,-0.0235764 -0.0844821,-0.0491175 -0.026196,-0.0268509 -0.0455156,-0.0556665 -0.0569763,-0.0877566 -0.0117882,-0.0320901 -0.0176823,-0.06549 -0.0180098,-0.0995448 -0.00032745,-0.0343823 0.0032745,-0.0687645 0.0114608,-0.103147 0.00753135,-0.0340548 0.0186647,-0.0664724 0.0320901,-0.0975801 0.0167,-0.0389666 0.0379842,-0.0759684 0.0628704,-0.111006 0.0252137,-0.0350372 0.0500999,-0.0671273 0.0753135,-0.0959429 0.0255411,-0.0288156 0.0474803,-0.052392 0.0658175,-0.0713841l0.276368 0.276368zm-0.684043 -1.64085l-0.0943056 0.0939782 1.33698 1.33698 0.0943056 -0.0939782 -1.33698 -1.33698zm1.86417 -0.139166c-0.0314352,-0.0307803 -0.0651626,-0.0595959 -0.10151,-0.0867743 -0.036347,-0.0268509 -0.0798978,-0.0500999 -0.12967,-0.0700743 -0.0379842,-0.0157176 -0.0805527,-0.0268509 -0.127051,-0.0337274 -0.0468254,-0.00753135 -0.0959429,-0.00753135 -0.147353,-0.00098235 -0.0514097,0.00687645 -0.103147,0.0225941 -0.155539,0.0478077 -0.052392,0.0248862 -0.103147,0.0615606 -0.152264,0.110351 -0.0628704,0.0641802 -0.107404,0.132617 -0.132945,0.206948 -0.0255411,0.0736763 -0.0350372,0.149317 -0.0278333,0.225613 0.00687645,0.0769508 0.0281607,0.150955 0.0628704,0.222666 0.0353646,0.0710567 0.08219,0.136874 0.140804,0.195488 0.0474803,0.0474803 0.0998723,0.0880841 0.157176,0.121484 0.0573038,0.032745 0.117555,0.0576312 0.18108,0.0736763 0.0635253,0.0157176 0.127706,0.0212843 0.193523,0.0163725 0.0651626,-0.0052392 0.129998,-0.0222666 0.193523,-0.0520646 0.0635253,-0.0291431 0.124431,-0.0723665 0.18239,-0.129998 0.0487901,-0.0491175 0.0884115,-0.0992174 0.118864,-0.150955 0.0307803,-0.0514097 0.0537018,-0.103147 0.0700743,-0.154884 0.0160451,-0.0510822 0.0271784,-0.10151 0.032745,-0.150955l-0.105766 -0.105766c-0.00163725,0.0248862 -0.00491175,0.0553391 -0.0098235,0.0900488 -0.0052392,0.0353646 -0.0140804,0.0743312 -0.0268509,0.115917 -0.013098,0.0415862 -0.0320901,0.0848096 -0.0573038,0.129015 -0.0252137,0.0438783 -0.0582861,0.0871017 -0.1002,0.12967 -0.0340548,0.0340548 -0.0730214,0.0628704 -0.116572,0.0864468 -0.0438783,0.0235764 -0.0913586,0.0402764 -0.141786,0.0491175 -0.0510822,0.0091686 -0.103802,0.00949605 -0.158486,0.00032745 -0.0550116,-0.0091686 -0.110678,-0.0294705 -0.166345,-0.0612332 -0.0563214,-0.0311078 -0.11166,-0.0759684 -0.16569,-0.1336l0.689937 -0.689937zm-0.754773 0.605783c-0.0366744,-0.0540293 -0.0618881,-0.107731 -0.0753135,-0.161105 -0.0134255,-0.0533744 -0.0173549,-0.104129 -0.0117882,-0.152919 0.0052392,-0.0491175 0.0183372,-0.0939782 0.0383117,-0.134909 0.019647,-0.0409313 0.0445332,-0.0762959 0.0743312,-0.105766 0.0497724,-0.0491175 0.105439,-0.08219 0.166345,-0.0992174 0.0612332,-0.0167 0.121811,-0.0180098 0.182717,-0.00294705 0.0442058,0.0104784 0.08219,0.0235764 0.11297,0.0399489 0.0311078,0.0160451 0.0579587,0.0324176 0.0808802,0.0484626l-0.568453 0.568453zm1.99581 -1.08615c-0.010151,-0.110678 -0.0209568,-0.222011 -0.032745,-0.333999 -0.0117882,-0.111006 -0.0278333,-0.221684 -0.0478077,-0.330397 -0.019647,-0.103147 -0.0415862,-0.192213 -0.0648351,-0.268509 -0.023249,-0.0753135 -0.0478077,-0.140476 -0.0740037,-0.19516 -0.0255411,-0.0546842 -0.0530469,-0.101837 -0.0815351,-0.141131 -0.0284882,-0.0396215 -0.0582861,-0.0746586 -0.0893939,-0.105111 -0.0487901,-0.0481352 -0.104784,-0.0857919 -0.167982,-0.111988 -0.0638528,-0.0265235 -0.130325,-0.0402764 -0.201054,-0.0415862 -0.0704018,-0.00098235 -0.139821,0.0117882 -0.208913,0.0389666 -0.0687645,0.0271784 -0.132945,0.0697469 -0.192213,0.12836 -0.0579587,0.0586136 -0.102164,0.124759 -0.133272,0.198762 -0.0314352,0.0743312 -0.0500999,0.152592 -0.0569763,0.234454l0.11559 0.11559c0.0026196,-0.0553391 0.00818625,-0.110023 0.0170274,-0.162415 0.00818625,-0.0527195 0.023249,-0.103802 0.0448607,-0.151937 0.0216117,-0.0484626 0.0530469,-0.0939782 0.0949605,-0.136219 0.0353646,-0.0353646 0.0766233,-0.0641802 0.124104,-0.0864468 0.0478077,-0.0222666 0.0985625,-0.0356921 0.151937,-0.0402764 0.0533744,-0.00491175 0.106749,0.0019647 0.159796,0.0199745 0.0527195,0.0180098 0.102492,0.049445 0.148335,0.0949605 0.0464979,0.0468254 0.0864468,0.0998723 0.119519,0.158813 0.0330725,0.0582861 0.0609057,0.11821 0.0831723,0.178788 0.0222666,0.0609057 0.0402764,0.118864 0.0533744,0.173221 0.0134255,0.0540293 0.0235764,0.100855 0.0301254,0.139821 0.0278333,0.156521 0.0484626,0.314352 0.0612332,0.472183 0.013098,0.158158 0.0160451,0.316644 0.00949605,0.476767l0.85268 -0.85268 -0.0939782 -0.0943056 -0.6215 0.6215zm1.02918 -2.16608c-0.120174,-0.119192 -0.235109,-0.21055 -0.346442,-0.274076 -0.110351,-0.0631979 -0.214152,-0.103147 -0.311078,-0.119519 -0.0969252,-0.0160451 -0.184027,-0.0124431 -0.262615,0.0111333 -0.0779331,0.023249 -0.144406,0.0628704 -0.19909,0.117555 -0.039294,0.0399489 -0.0700743,0.0831723 -0.0907037,0.129015 -0.0212843,0.0461705 -0.0353646,0.0936507 -0.0415862,0.142113 -0.006549,0.0491175 -0.00753135,0.0972527 -0.00294705,0.144733 0.0045843,0.0478077 0.013098,0.0936507 0.0252137,0.137202 0.0124431,0.0481352 0.0360195,0.103802 0.0704018,0.166672 0.0343823,0.0631979 0.0782606,0.13098 0.132617,0.202037 0.0540293,0.0710567 0.117227,0.142768 0.189266,0.215462 0.109041,0.107731 0.216117,0.191231 0.321229,0.250827 0.106094,0.0595959 0.206621,0.0965978 0.302891,0.112315 0.0959429,0.0157176 0.1837,0.0121157 0.263925,-0.0111333 0.0795704,-0.0235764 0.148662,-0.0635253 0.205639,-0.120829 0.0386391,-0.0386391 0.0697469,-0.085137 0.0929958,-0.141131 0.023249,-0.0563214 0.0360195,-0.119192 0.0383117,-0.190249 0.0019647,-0.0704018 -0.0091686,-0.147025 -0.0337274,-0.229215 -0.0245588,-0.0828449 -0.0658175,-0.169619 -0.123449,-0.260323 -0.0573038,-0.091686 -0.134582,-0.185664 -0.230852,-0.282589zm-0.109696 0.0861194c0.0435509,0.0438783 0.0857919,0.0910311 0.126723,0.142441 0.0406038,0.0517371 0.0772782,0.104784 0.111006,0.160778 0.0330725,0.055994 0.0605783,0.111988 0.0818625,0.168637 0.0216117,0.0566489 0.0347097,0.112643 0.0399489,0.167 0.0052392,0.0546842 0.00032745,0.106749 -0.0147353,0.155866 -0.0144078,0.0491175 -0.0422411,0.0939782 -0.08219,0.134582 -0.0415862,0.0406038 -0.0890664,0.0681096 -0.143096,0.08219 -0.0543567,0.0137529 -0.112315,0.0157176 -0.175186,0.0052392 -0.0622155,-0.010151 -0.127051,-0.0311078 -0.194505,-0.0622155 -0.0674547,-0.0317627 -0.134909,-0.0723665 -0.203019,-0.121811 -0.0684371,-0.0497724 -0.134582,-0.107076 -0.199745,-0.171911 -0.0573038,-0.0573038 -0.110023,-0.118864 -0.158158,-0.1837 -0.0487901,-0.0651626 -0.0890664,-0.131635 -0.122794,-0.199417 -0.0333999,-0.0677822 -0.0569763,-0.134582 -0.0700743,-0.200072 -0.0127706,-0.0651626 -0.0127706,-0.127378 -0.00032745,-0.185009 0.013098,-0.0582861 0.0419136,-0.110023 0.0867743,-0.155211 0.0432234,-0.0425685 0.0907037,-0.0707292 0.142441,-0.0844821 0.0520646,-0.0140804 0.106094,-0.0167 0.162743,-0.0085137 0.0566489,0.0085137 0.113625,0.0248862 0.171256,0.0491175 0.0569763,0.0245588 0.11297,0.0537018 0.167,0.0877566 0.0537018,0.0343823 0.104457,0.0707292 0.150955,0.108713 0.0468254,0.0376568 0.0877566,0.0746586 0.123121,0.110023zm1.09008 -1.06651c-0.120502,-0.118864 -0.235437,-0.21055 -0.346442,-0.273748 -0.110351,-0.0635253 -0.21448,-0.103147 -0.311078,-0.119519 -0.0969252,-0.0160451 -0.184354,-0.0124431 -0.262615,0.0111333 -0.0782606,0.0229215 -0.144406,0.062543 -0.199417,0.117555 -0.039294,0.0399489 -0.0700743,0.0828449 -0.0903762,0.129015 -0.0212843,0.0461705 -0.0353646,0.0933233 -0.0415862,0.142113 -0.006549,0.0491175 -0.00753135,0.0969252 -0.00294705,0.144733 0.0045843,0.0478077 0.013098,0.0933233 0.0252137,0.136874 0.0124431,0.0484626 0.0356921,0.103802 0.0700743,0.167 0.0343823,0.0628704 0.078588,0.130653 0.132617,0.202037 0.0540293,0.0707292 0.117555,0.142768 0.189266,0.215135 0.109041,0.107731 0.216445,0.191558 0.321556,0.251154 0.105766,0.0592685 0.206621,0.0965978 0.302564,0.112315 0.0959429,0.0157176 0.184027,0.0121157 0.263925,-0.0111333 0.0798978,-0.0235764 0.148662,-0.0638528 0.205966,-0.120829 0.0386391,-0.0386391 0.0694194,-0.0854645 0.0926684,-0.141131 0.0235764,-0.0563214 0.036347,-0.119519 0.0386391,-0.190249 0.0019647,-0.0707292 -0.0091686,-0.147025 -0.0340548,-0.229543 -0.0245588,-0.0825174 -0.06549,-0.169619 -0.123121,-0.260323 -0.0576312,-0.0913586 -0.134582,-0.185664 -0.230852,-0.282589zm-0.110023 0.0861194c0.0438783,0.0438783 0.0861194,0.0913586 0.126723,0.142441 0.0406038,0.0517371 0.0776057,0.105111 0.111333,0.160778 0.032745,0.055994 0.0602508,0.112315 0.0815351,0.168637 0.0216117,0.0569763 0.0350372,0.112643 0.0402764,0.167 0.0052392,0.0550116 0.00032745,0.106749 -0.0147353,0.155866 -0.0147353,0.049445 -0.0425685,0.0939782 -0.0825174,0.134582 -0.0412587,0.0409313 -0.0890664,0.0684371 -0.143096,0.0825174 -0.0540293,0.0137529 -0.112315,0.0157176 -0.174858,0.0052392 -0.062543,-0.010151 -0.127378,-0.0311078 -0.194505,-0.062543 -0.0677822,-0.0317627 -0.134909,-0.072039 -0.203347,-0.121484 -0.0681096,-0.0500999 -0.134582,-0.107076 -0.199417,-0.172239 -0.0573038,-0.0573038 -0.110351,-0.118537 -0.158158,-0.1837 -0.0487901,-0.0648351 -0.0893939,-0.131635 -0.122794,-0.19909 -0.0333999,-0.0681096 -0.0569763,-0.134909 -0.0700743,-0.200072 -0.013098,-0.06549 -0.013098,-0.127378 -0.00032745,-0.185337 0.013098,-0.0579587 0.0419136,-0.109696 0.0864468,-0.155211 0.0432234,-0.0425685 0.0910311,-0.0704018 0.142441,-0.0841547 0.0520646,-0.0140804 0.106421,-0.0167 0.162743,-0.0085137 0.0569763,0.0085137 0.113953,0.0248862 0.171256,0.0487901 0.0573038,0.0245588 0.11297,0.0537018 0.167,0.0880841 0.0540293,0.0343823 0.104457,0.0704018 0.150955,0.108386 0.0471528,0.0379842 0.0880841,0.0749861 0.123121,0.110023zm1.04096 0.119847c-0.010151,-0.111006 -0.0209568,-0.222339 -0.0324176,-0.333999 -0.0117882,-0.111006 -0.0278333,-0.222011 -0.0478077,-0.330725 -0.0199745,-0.102819 -0.0419136,-0.192213 -0.0651626,-0.268182 -0.023249,-0.075641 -0.0474803,-0.140476 -0.0736763,-0.195488 -0.0258686,-0.0546842 -0.0533744,-0.10151 -0.0818625,-0.141131 -0.0281607,-0.0396215 -0.0579587,-0.0743312 -0.0890664,-0.104784 -0.0491175,-0.0484626 -0.104784,-0.0861194 -0.168309,-0.111988 -0.0635253,-0.0265235 -0.130325,-0.0402764 -0.201054,-0.0415862 -0.0700743,-0.00098235 -0.139821,0.0117882 -0.208586,0.0389666 -0.069092,0.0268509 -0.132945,0.0694194 -0.192541,0.12836 -0.0579587,0.0582861 -0.101837,0.124759 -0.133272,0.198435 -0.0314352,0.0746586 -0.0500999,0.152592 -0.0569763,0.234782l0.115917 0.11559c0.0026196,-0.0556665 0.0078588,-0.110023 0.0167,-0.162743 0.00818625,-0.0527195 0.023249,-0.103474 0.0448607,-0.151937 0.0216117,-0.0484626 0.0533744,-0.0936507 0.095288,-0.136219 0.0350372,-0.0353646 0.0762959,-0.0641802 0.124104,-0.0861194 0.0474803,-0.0222666 0.098235,-0.0356921 0.151937,-0.0402764 0.0530469,-0.00491175 0.106421,0.0019647 0.159796,0.0199745 0.052392,0.0180098 0.102164,0.0491175 0.148335,0.0946331 0.0461705,0.0471528 0.0861194,0.0998723 0.119519,0.158813 0.0330725,0.0586136 0.0605783,0.11821 0.0828449,0.179115 0.0222666,0.0605783 0.0402764,0.118537 0.0537018,0.173221 0.0134255,0.0537018 0.0235764,0.100527 0.0301254,0.139821 0.0278333,0.156521 0.0481352,0.314352 0.0609057,0.472183 0.013098,0.158158 0.0160451,0.316317 0.00949605,0.47644l0.85268 -0.85268 -0.0939782 -0.0939782 -0.6215 0.6215z"/>
 </g>
</svg>
