<?xml version="1.0" encoding="utf-8"?>
<!-- Generator: Adobe Illustrator 15.1.0, SVG Export Plug-In . SVG Version: 6.00 Build 0)  -->
<!DOCTYPE svg PUBLIC "-//W3C//DTD SVG 1.1//EN" "http://www.w3.org/Graphics/SVG/1.1/DTD/svg11.dtd" [
	<!ENTITY ns_extend "http://ns.adobe.com/Extensibility/1.0/">
	<!ENTITY ns_ai "http://ns.adobe.com/AdobeIllustrator/10.0/">
	<!ENTITY ns_graphs "http://ns.adobe.com/Graphs/1.0/">
	<!ENTITY ns_vars "http://ns.adobe.com/Variables/1.0/">
	<!ENTITY ns_imrep "http://ns.adobe.com/ImageReplacement/1.0/">
	<!ENTITY ns_sfw "http://ns.adobe.com/SaveForWeb/1.0/">
	<!ENTITY ns_custom "http://ns.adobe.com/GenericCustomNamespace/1.0/">
	<!ENTITY ns_adobe_xpath "http://ns.adobe.com/XPath/1.0/">
]>
<svg version="1.1"
	 id="svg2" xmlns:x="&ns_extend;" xmlns:i="&ns_ai;" xmlns:graph="&ns_graphs;" xmlns:rdf="http://www.w3.org/1999/02/22-rdf-syntax-ns#" xmlns:cc="http://creativecommons.org/ns#" xmlns:dc="http://purl.org/dc/elements/1.1/"
	 xmlns="http://www.w3.org/2000/svg" xmlns:xlink="http://www.w3.org/1999/xlink" x="0px" y="0px" width="150.2px"
	 height="149.859px" viewBox="0 0 150.2 149.859" enable-background="new 0 0 150.2 149.859" xml:space="preserve">
<metadata  id="metadata136">
	<rdf:RDF>
		<cc:Work  rdf:about="">
			<dc:format>image/svg+xml</dc:format>
			<dc:type  rdf:resource="http://purl.org/dc/dcmitype/StillImage"></dc:type>
			<dc:title></dc:title>
		</cc:Work>
	</rdf:RDF>
	<sfw  xmlns="&ns_sfw;">
		<slices></slices>
		<sliceSourceBounds  x="108.776" y="-6.202" height="299.545" width="180.476" bottomLeftOrigin="true"></sliceSourceBounds>
	</sfw>
</metadata>
<g id="Layer_x0020_1" transform="matrix(1.3,0,0,1.3,-115.30545,-171.90329)">
	<path id="path10" fill="#E41A17" d="M152.172,239.887l5.708-7.142l0.24-12.954c24.51-6.514,39.321-30.843,34.174-54.477
		c-2.87-13.059-17.468-32.105-39.074-32.244c-0.351,0-0.699,0-1.05,0.034v5.601c5.774,0.735,11.338,2.731,16.14,5.916
		c10.047,6.615,15.965,20.026,15.965,31.368c-0.034,11.136-1.086,27.484-22.16,39.738l-8.646-38.021l-1.295-0.629v20.026
		l8.26,19.747c-1.294,0.701-3.395,1.366-4.796,1.994l-0.388,0.212l-3.079,3.956v16.873h0.002V239.887z M152.172,174.837v-19.712
		l14.914,1.821l-6.865-8.121c-4.165,0.032-6.196-4.938-3.114-5.986c1.785-0.631,5.427,0.142,5.739,4.727l14.25,11.763
		c1.261,1.332-0.107,1.576-1.088,1.576l-18.484,1.19l-4.902,12.5L152.172,174.837L152.172,174.837z M138.899,239.467l7.948,7.037
		l5.322-6.616v-16.875l-4.764,6.091l-13.269-15.122l14.355-25.664l3.678,8.786v-20.026l-2.242-1.049l2.242-1.192v-19.712
		l-0.455-0.034c-0.387-0.91-0.596-0.876-0.735-1.644c-0.491-0.421-0.598-0.631-1.19-0.874c0.488-2.732,1.259-5.815,0.631-9.035
		c-0.421-1.26-1.19-1.995-2.384-2.592c-0.663-0.557-2.134-0.665-3.849-0.665c-1.295,0.068-2.416,0.525-3.221,1.156
		c-0.385,0.316-0.91,0.875-0.806,1.368c0.21,0.979,0.595,1.223,1.715,1.538v4.375c0.105,0.842,0.352,1.647,1.926,2.206l1.575,0.699
		l-0.28,2.522l-24.996-4.162c5.181-4.447,11.096-8.438,17.154-10.154c4.9-1.364,9.977-1.715,14.914-1.12v-5.601
		c-10.539,0.142-23.527,3.57-35.43,16.316l-6.827-1.33c-4.273-1.366-7.212-1.084-7.177,2.137c0.036,3.536,5.217,4.167,7.843,1.05
		l28.357,7.913l4.621,18.133l-11.554,34.451l-24.158-27.238c-3.779-4.552-8.752-2.031-8.858,1.821v0.244
		c0.035,1.4,0.735,2.941,2.31,4.377l43.798,40.683l-6.194,7.806L138.899,239.467z"/>
	<polygon id="polygon12" fill="#E41A17" points="110.661,238.365 108.123,238.365 108.123,234.054 111.59,234.054 113.027,227.629 
		105.419,227.629 105.419,223.232 105.419,223.232 105.419,217.568 109.73,217.568 109.73,223.232 113.958,223.232 113.958,223.232 
		118.269,223.232 115.141,238.365 	"/>
	<polygon id="polygon14" fill="#E41A17" points="145.154,223.232 145.154,213.511 143.124,213.511 143.124,209.45 149.38,209.45 
		149.38,223.232 	"/>
	<polygon id="polygon16" fill="#E41A17" points="121.566,227.545 119.284,227.545 119.284,223.232 124.356,223.232 124.356,223.232 
		124.441,223.232 128.668,234.054 128.837,234.054 128.837,227.545 127.4,227.545 127.4,223.232 131.712,223.232 131.712,223.232 
		133.149,223.232 133.149,238.365 131.627,238.365 128.837,238.365 119.114,238.365 119.114,234.054 124.018,234.054 	"/>
	<polygon id="polygon18" fill="#E41A17" points="167.641,227.545 164.26,227.545 164.26,229.826 159.948,229.826 159.948,227.545 
		159.948,223.824 159.948,223.232 167.641,223.232 167.641,223.232 171.954,223.232 171.954,238.365 170.602,238.365 
		167.641,238.365 160.034,238.365 160.034,234.054 167.641,234.054 	"/>
	<path id="path20" fill="#E41A17" d="M181.506,223.232h3.924h0.349v15.125h-4.273v-10.854h-4.585v-4.273L181.506,223.232
		L181.506,223.232L181.506,223.232L181.506,223.232z M176.922,238.357h2.133v-7.493h-2.133V238.357z M176.922,227.503h-2.344v-4.273
		l2.344,0.002V227.503z M176.922,230.864v7.493h-2.133v-7.493H176.922z"/>
	<path id="path24" d="M127.164,245.74h-0.002l0,0 M127.162,245.739"/>
	<line id="polygon82_2_" fill="#FFFFFF" x1="237.813" y1="360.277" x2="234.939" y2="363.489"/>
</g>
</svg>
