<?xml version="1.0" encoding="UTF-8" standalone="no"?>
<!-- Created with Inkscape (http://www.inkscape.org/) -->

<svg
   xmlns:dc="http://purl.org/dc/elements/1.1/"
   xmlns:cc="http://creativecommons.org/ns#"
   xmlns:rdf="http://www.w3.org/1999/02/22-rdf-syntax-ns#"
   xmlns:svg="http://www.w3.org/2000/svg"
   xmlns="http://www.w3.org/2000/svg"
   xmlns:sodipodi="http://sodipodi.sourceforge.net/DTD/sodipodi-0.dtd"
   xmlns:inkscape="http://www.inkscape.org/namespaces/inkscape"
   id="svg2"
   version="1.1"
   inkscape:version="0.48.2 r9819"
   width="215.53441"
   height="300"
   xml:space="preserve"
   sodipodi:docname="viktorian_7_10.pdf"><metadata
     id="metadata8"><rdf:RDF><cc:Work
         rdf:about=""><dc:format>image/svg+xml</dc:format><dc:type
           rdf:resource="http://purl.org/dc/dcmitype/StillImage" /><dc:title></dc:title></cc:Work></rdf:RDF></metadata><defs
     id="defs6"><clipPath
       clipPathUnits="userSpaceOnUse"
       id="clipPath16"><path
         d="m 0.029999,595.26 595.246001,0 0,-595.26 -595.246001,0 0,595.26 z"
         id="path18"
         inkscape:connector-curvature="0" /></clipPath></defs><sodipodi:namedview
     pagecolor="#ffffff"
     bordercolor="#666666"
     borderopacity="1"
     objecttolerance="10"
     gridtolerance="10"
     guidetolerance="10"
     inkscape:pageopacity="0"
     inkscape:pageshadow="2"
     inkscape:window-width="1366"
     inkscape:window-height="716"
     id="namedview4"
     showgrid="false"
     fit-margin-top="0"
     fit-margin-left="0"
     fit-margin-right="0"
     fit-margin-bottom="0"
     inkscape:zoom="1"
     inkscape:cx="158.57629"
     inkscape:cy="173.62629"
     inkscape:window-x="-8"
     inkscape:window-y="-8"
     inkscape:window-maximized="1"
     inkscape:current-layer="g10" /><g
     id="g10"
     inkscape:groupmode="layer"
     inkscape:label="viktorian_7_10"
     transform="matrix(1.25,0,0,-1.25,-213.4712,578.42123)"><g
       id="g3055"
       transform="matrix(0,3.4617049,-3.4617049,0,2106.2404,-1467.3262)"><g
         transform="translate(557.547,534.217)"
         id="g24"><path
           id="path26"
           style="fill:#ffffff;fill-opacity:1;fill-rule:evenodd;stroke:none"
           d="m 0,0 c 0,-5.831 -0.754,-11.947 -2.574,-17.503 l -0.351,-1.072 -2.529,0 c -3.52,0.044 -6.663,-2.145 -7.983,-5.377 l -0.396,-0.968 -25.087,0 c -9.921,0 -18.006,4.532 -23.916,12.335 -1.948,2.572 -3.596,5.416 -4.903,8.365 -0.539,1.215 -1.101,2.583 -1.468,3.866 l -0.123,0.43 0.124,0.43 c 0.367,1.274 0.929,2.634 1.468,3.84 1.309,2.93 2.959,5.753 4.906,8.304 5.927,7.765 14.019,12.24 23.912,12.24 l 25.069,0 0.404,-0.945 c 1.353,-3.166 4.485,-5.293 7.954,-5.249 l 0.019,0 2.505,0 0.354,-1.068 C -0.765,12.039 0,5.872 0,0"
           inkscape:connector-curvature="0" /></g><g
         transform="translate(555.99,534.217)"
         id="g28"><path
           id="path30"
           style="fill:#000000;fill-opacity:1;fill-rule:evenodd;stroke:none"
           d="m 0,0 c 0,-6.345 -0.925,-12.22 -2.496,-17.019 l -1.381,0 c -4.267,0.054 -7.924,-2.623 -9.444,-6.344 l -24.042,0 c -22.079,0 -28.791,23.438 -28.791,23.438 0,0 6.712,23.259 28.791,23.259 l 24.042,0 c 1.556,-3.642 5.195,-6.247 9.404,-6.194 l 1.381,0 C -0.941,12.319 0,6.399 0,0"
           inkscape:connector-curvature="0" /></g><g
         transform="translate(531.503,511.633)"
         id="g32"><path
           id="path34"
           style="fill:#f1ca0b;fill-opacity:1;fill-rule:evenodd;stroke:none"
           d="M 0,0 0.272,0 0.34,0.001 c 0,6.579 -1.665,13.057 -4.953,18.763 -0.043,0.074 -0.086,0.148 -0.129,0.222 -0.588,-0.5 -1.197,-0.977 -1.824,-1.43 -3.46,-2.5 -7.462,-4.239 -11.665,-4.902 C -15.948,7.383 -11.935,3.206 -6.588,1.212 -4.436,0.411 -2.218,0.02 0,0"
           inkscape:connector-curvature="0" /></g><g
         transform="translate(490.685,534.177)"
         id="g36"><path
           id="path38"
           style="fill:#c20016;fill-opacity:1;fill-rule:evenodd;stroke:none"
           d="m 0,0 c 0.072,-0.223 0.15,-0.445 0.227,-0.663 0.314,-0.884 0.668,-1.757 1.049,-2.614 1.239,-2.783 2.798,-5.47 4.641,-7.897 5.467,-7.197 12.857,-11.37 22.025,-11.37 l 7.484,0 c -0.494,0.142 -0.984,0.303 -1.467,0.483 -2.253,0.84 -4.322,2.071 -6.142,3.641 -2.664,2.301 -4.672,5.212 -6.029,8.418 -0.895,-0.112 -1.799,-0.174 -2.707,-0.184 -2.638,-0.03 -5.272,0.388 -7.765,1.256 C 7.797,-7.706 4.691,-5.644 2.198,-2.874 1.386,-1.971 0.653,-1.01 0,0"
           inkscape:connector-curvature="0" /></g><g
         transform="translate(511.256,537.954)"
         id="g40"><path
           id="path42"
           style="fill:#ffffff;fill-opacity:1;fill-rule:evenodd;stroke:none"
           d="M 0,0 0.001,0 -0.001,-0.014 C -0.01,-0.34 -0.037,-0.662 -0.08,-0.979 c -0.278,-4.233 0.359,-8.327 1.789,-11.947 4.812,0.721 9.474,2.915 13.39,6.267 C 12.053,-1.712 7.83,2.464 2.745,5.307 0.458,6.585 -1.955,7.566 -4.451,8.233 -1.779,6.589 0.004,3.639 0.004,0.272 0.004,0.181 0.002,0.09 0,0"
           inkscape:connector-curvature="0" /></g><g
         transform="translate(492.618,539.051)"
         id="g44"><path
           id="path46"
           style="fill:#80b13d;fill-opacity:1;fill-rule:evenodd;stroke:none"
           d="m 0,0 c -0.235,-0.476 -0.461,-0.957 -0.677,-1.44 -0.353,-0.79 -0.683,-1.594 -0.978,-2.408 2.543,-4.216 6.396,-7.517 11.294,-9.221 3.23,-1.124 6.6,-1.443 9.914,-1.059 -0.518,1.338 -0.925,2.721 -1.221,4.129 -0.358,1.695 -0.556,3.416 -0.604,5.141 -1.505,-3.138 -4.712,-5.306 -8.425,-5.306 -5.157,0 -9.34,4.182 -9.34,9.339 0,0.278 0.013,0.553 0.037,0.825"
           inkscape:connector-curvature="0" /></g><g
         transform="translate(498.02,547.226)"
         id="g48"><path
           id="path50"
           style="fill:#62bb46;fill-opacity:1;fill-rule:evenodd;stroke:none"
           d="m 0,0 c -0.259,-0.297 -0.515,-0.6 -0.767,-0.909 0.673,0.388 1.398,0.695 2.162,0.908 -0.189,0.003 -0.379,0.005 -0.568,0.005 -0.04,0 -0.08,-0.001 -0.121,-0.001"
           inkscape:connector-curvature="0" /></g><g
         transform="translate(538.909,531.245)"
         id="g52"><path
           id="path54"
           style="fill:#0000b2;fill-opacity:1;fill-rule:evenodd;stroke:none"
           d="m 0,0 c 0.792,-1.827 1.469,-3.698 2.028,-5.604 l 5.273,0 C 7.566,-3.743 7.739,-1.87 7.828,0 L 0,0 z m -8.196,12.764 c 1.583,-1.751 3.03,-3.626 4.33,-5.604 l 11.627,0 C 7.639,9.022 7.432,10.899 7.132,12.764 l -15.328,0 z m 11.455,12.763 -23.541,0 c -2.197,0 -4.294,-0.238 -6.288,-0.699 2.533,-0.829 4.98,-1.906 7.307,-3.207 0.949,-0.531 1.875,-1.097 2.776,-1.697 l 21.949,0 c -0.606,1.935 -1.336,3.814 -2.203,5.603 m 0.302,-38.291 c 0.234,-1.702 0.381,-3.418 0.439,-5.143 0.695,1.676 1.288,3.394 1.787,5.143"
           inkscape:connector-curvature="0" /></g><g
         transform="translate(535.544,537.627)"
         id="g56"><path
           id="path58"
           style="fill:#c20016;fill-opacity:1;fill-rule:evenodd;stroke:none"
           d="m 0,0 c 0.324,-0.515 0.639,-1.037 0.943,-1.566 0.758,-1.316 1.451,-2.663 2.076,-4.037 l 8.205,0 c 0.025,0.732 0.039,1.463 0.039,2.193 0,1.126 -0.03,2.264 -0.091,3.41 L 0,0 z m -11.99,12.764 c 2.325,-1.656 4.479,-3.536 6.439,-5.604 l 15.917,0 c -0.332,1.894 -0.763,3.771 -1.302,5.604 l -21.054,0 z M 5.615,-12.764 c 0.507,-1.842 0.907,-3.712 1.198,-5.603 l 2.555,0 c 0.494,1.842 0.885,3.716 1.182,5.603"
           inkscape:connector-curvature="0" /></g><g
         transform="translate(552.888,550.579)"
         id="g60"><path
           id="path62"
           style="fill:#ffffff;fill-opacity:1;fill-rule:evenodd;stroke:none"
           d="m 0,0 -0.805,0 c -3.039,-0.038 -5.876,1.223 -7.912,3.328 2.167,-5.76 3.414,-12.494 3.414,-19.69 0,-7.153 -1.232,-13.851 -3.377,-19.589 2.029,2.116 4.862,3.387 7.914,3.349 l 0.804,0 c 1.618,5.176 2.286,10.845 2.286,16.24 C 2.324,-10.927 1.645,-5.209 0,0"
           inkscape:connector-curvature="0" /></g><g
         transform="translate(542.159,511.633)"
         id="g64"><path
           id="path66"
           style="fill:#ffffff;fill-opacity:1;fill-rule:evenodd;stroke:none"
           d="m 0,0 c 0,21.059 -13.242,38.792 -31.247,44.068 -4.674,-1.365 -8.748,-3.999 -12.189,-7.694 0.042,0 0.083,0.002 0.124,0.002 18.65,0 33.774,-16.289 33.774,-36.376"
           inkscape:connector-curvature="0" /></g><g
         transform="translate(510.364,536.808)"
         id="g68"><path
           id="path70"
           style="fill:#ffffff;fill-opacity:1;fill-rule:evenodd;stroke:none"
           d="m 0,0 -1.449,1.434 -2.185,-1.49 -0.437,-3.092 1.492,-1.67 0.001,0 C -1.277,-3.57 -0.31,-1.858 0,0 m -4.572,-3.754 -3.305,-0.143 -1.779,-1.834 0.248,-1.358 c 2.115,-0.256 4.472,0.293 6.238,1.764 l -1.402,1.571 z m -7.718,4.427 2.797,-1.295 0.973,-2.809 -1.562,-1.586 -2.881,1.221 -1.03,2.967 1.703,1.502 z m -2.513,-1.658 1.012,-2.809 -0.794,-0.714 c -1.265,1.141 -2.168,3.071 -2.359,4.914 l 0.594,0.348 1.547,-1.739 z m -2.201,2.313 0.35,0.198 1.097,3.433 -0.159,1.016 C -16.511,4.737 -17.044,2.87 -17.004,1.328 m 8.723,3.242 -2.302,0.976 -2.01,-1.451 0.648,-2.699 2.613,-1.219 1.838,1.798 -0.787,2.595 z m -6.771,2.275 0.002,0.017 c 0.749,0.909 1.65,1.721 3.199,2.412 l 1.173,-0.591 -0.438,-2.597 -2.011,-1.379 -1.702,0.593 -0.223,1.545 z m 4.131,2.769 0.739,-0.41 2.851,0.214 0.206,0.457 c -0.354,0.049 -0.765,0.104 -1.318,0.104 -0.632,0 -1.693,-0.128 -2.478,-0.365 M -2.86,5.587 -1.924,6.966 C -3.062,8.301 -4.603,9.283 -6.359,9.723 L -6.36,9.719 -6.658,9.011 -5.553,6.956 -2.86,5.587 z M -5.708,6.133 -2.842,4.862 -1.897,2.07 -3.993,0.641 -6.804,2.232 -7.544,4.71"
           inkscape:connector-curvature="0" /></g><g
         transform="translate(549.266,524.408)"
         id="g72"><path
           id="path74"
           style="fill:#000000;fill-opacity:1;fill-rule:evenodd;stroke:none"
           d="M 0,0 4.692,2.163 4.844,3.194 -1.098,4.096 -1.251,3.081 2.973,2.44 -1.675,0.254 -1.835,-0.76 4.108,-1.661 4.26,-0.647 0,0 z M 4.914,4.518 3.893,4.59 4.039,6.659 2.747,6.75 2.621,4.969 1.613,5.04 1.739,6.822 0.092,6.939 -0.054,4.87 -1.079,4.943 -0.859,8.035 5.135,7.61 4.914,4.518 z M 4.107,8.752 0.15,11.366 0.151,8.752 l -1.027,0 -0.001,3.785 1.027,0 3.957,-2.615 0,2.615 1.026,0 0,-3.785 -1.026,0 z m -4.161,6.46 0.16,-1.808 -1.022,-0.09 -0.25,2.83 5.986,0.528 0.09,-1.023 -4.964,-0.437 z m 2.991,3.259 c 0.595,0.117 0.533,0.685 0.489,0.909 l -0.16,0.81 -1.285,-0.253 0.16,-0.811 c 0.052,-0.267 0.202,-0.771 0.796,-0.655 m -1.948,1.271 c -0.782,-0.154 -1.845,-0.363 -2.627,-0.517 -0.065,0.322 -0.133,0.686 -0.198,1.007 l 5.896,1.16 0.198,-1.007 C 4.442,19.45 4.769,17.791 3.134,17.469 1.361,17.12 1.227,18.53 0.989,19.742 M 4.151,1.452 5.057,1.867 4.95,1.164 4.193,0.817 4.813,0.261 4.705,-0.447 3.963,0.219"
           inkscape:connector-curvature="0" /></g><g
         transform="translate(536.835,515.291)"
         id="g76"><path
           id="path78"
           style="fill:#000000;fill-opacity:1;fill-rule:evenodd;stroke:none"
           d="M 0,0 1.936,1.043 -0.174,1.675 0,0 z M -3.463,4.295 2.916,5.556 2.7,6.646 -3.679,5.385 -3.463,4.295 z M -1.575,8.615 -3.738,5.87 -4.13,7.124 -1.944,9.819 C -2.769,9.566 -3.89,9.223 -4.715,8.97 -4.82,9.308 -4.934,9.693 -5.04,10.032 l 6.216,1.905 0.326,-1.061 C 1.805,9.889 2.341,8.141 0.618,7.612 -1.106,7.084 -1.492,8.457 -1.575,8.615 M 0.294,8.669 C -0.333,8.477 -0.55,9.003 -0.637,9.285 L -0.898,10.14 0.456,10.555 0.718,9.701 C 0.791,9.465 0.921,8.86 0.294,8.669 m -1.81,6.987 c -0.492,1.084 -1.77,1.565 -2.855,1.073 -1.084,-0.491 -1.564,-1.769 -1.073,-2.854 0.492,-1.084 1.77,-1.565 2.854,-1.073 1.085,0.492 1.565,1.77 1.074,2.854 m 0.996,0.453 c -0.74,1.634 -2.668,2.359 -4.303,1.618 -1.635,-0.742 -2.359,-2.669 -1.618,-4.303 0.742,-1.636 2.669,-2.36 4.304,-1.619 1.634,0.742 2.359,2.668 1.617,4.304 m -2.585,2.704 -0.6,0.958 -4.585,-2.868 -0.587,0.944 4.582,2.866 -0.589,0.942 0.928,0.58 1.767,-2.825 -0.916,-0.597 z m -6.335,-0.03 1.006,4.274 4.088,-0.233 -0.853,1.074 -3.369,0.209 1.967,1.56 -0.697,0.877 -5.088,-4.048 0.69,-0.869 2.27,1.8 -0.867,-3.569 0.853,-1.075 z m -3.612,4.458 4.697,4.496 -0.768,0.802 -4.697,-4.496 0.768,-0.802 z m -2.742,2.625 -0.85,0.715 2.217,6.63 0.85,-0.715 -1.67,-5.115 4.752,2.525 0.85,-0.714 -6.149,-3.326 z m -10.94,12.069 2.103,-0.725 0.356,1.034 -3.153,1.086 -2.118,-6.147 1.05,-0.362 0.944,2.74 2.103,-0.725 0.356,1.034 -2.103,0.725 0.462,1.34 z m 6.548,-1.372 c 0.807,-0.394 1.378,-1.077 1.649,-1.863 l -1.035,-0.357 c -0.18,0.522 -0.559,0.975 -1.094,1.235 -1.069,0.522 -2.361,0.077 -2.882,-0.993 -0.522,-1.07 -0.077,-2.361 0.993,-2.883 0.535,-0.261 1.125,-0.28 1.647,-0.1 l 0.356,-1.035 c -0.786,-0.271 -1.676,-0.242 -2.483,0.151 -1.614,0.787 -2.284,2.733 -1.498,4.347 0.787,1.614 2.733,2.284 4.347,1.498 m 17.552,-39.244 -0.124,1.195 1.716,0.925 -0.267,2.573 -1.871,0.56 -0.124,1.195 6.746,-2.015 0.115,-1.098"
           inkscape:connector-curvature="0" /></g></g></g></svg>